<svg width="256" height="256" viewBox="0 0 256 256" fill="none" xmlns="http://www.w3.org/2000/svg">
<rect width="256" height="256" fill="#00CCFF"/>
<rect x="41.5" y="41.5" width="173" height="173" rx="6" fill="white"/>
<rect x="41.5" y="41.5" width="173" height="173" rx="6" stroke="black" stroke-width="4"/>
<path d="M107.854 168.113C108.237 169.645 108.429 171.561 108.429 173.86C108.429 176.064 108.237 177.98 107.854 179.608C108.237 181.141 108.429 183.057 108.429 185.356C108.429 187.56 108.237 189.476 107.854 191.104H102.106C102.49 192.637 102.681 194.553 102.681 196.852C102.681 199.055 102.49 200.971 102.106 202.6H67.619C67.2358 200.971 67.0442 199.055 67.0442 196.852C67.0442 194.553 67.2358 192.637 67.619 191.104H61.8711C61.4879 189.476 61.2963 187.56 61.2963 185.356C61.2963 183.057 61.4879 181.141 61.8711 179.608H73.3669C73.7501 181.141 73.9417 183.057 73.9417 185.356C73.9417 187.56 73.7501 189.476 73.3669 191.104H96.3585C95.9753 189.476 95.7837 187.56 95.7837 185.356C95.7837 183.057 95.9753 181.141 96.3585 179.608C95.9753 177.98 95.7837 176.064 95.7837 173.86C95.7837 171.561 95.9753 169.645 96.3585 168.113H67.619C67.2358 166.484 67.0442 164.568 67.0442 162.365C67.0442 160.066 67.2358 158.15 67.619 156.617H61.8711C61.4879 154.988 61.2963 153.072 61.2963 150.869C61.2963 148.57 61.4879 146.654 61.8711 145.121C61.4879 143.492 61.2963 141.576 61.2963 139.373C61.2963 137.074 61.4879 135.158 61.8711 133.625H67.619C67.2358 131.997 67.0442 130.081 67.0442 127.877C67.0442 125.578 67.2358 123.662 67.619 122.129H102.106C102.49 123.662 102.681 125.578 102.681 127.877C102.681 130.081 102.49 131.997 102.106 133.625H107.854C108.237 135.158 108.429 137.074 108.429 139.373C108.429 141.576 108.237 143.492 107.854 145.121H96.3585C95.9753 143.492 95.7837 141.576 95.7837 139.373C95.7837 137.074 95.9753 135.158 96.3585 133.625H73.3669C73.7501 135.158 73.9417 137.074 73.9417 139.373C73.9417 141.576 73.7501 143.492 73.3669 145.121C73.7501 146.654 73.9417 148.57 73.9417 150.869C73.9417 153.072 73.7501 154.988 73.3669 156.617H102.106C102.49 158.15 102.681 160.066 102.681 162.365C102.681 164.568 102.49 166.484 102.106 168.113H107.854Z" fill="black"/>
<path d="M194.129 133.625C194.512 135.158 194.704 137.074 194.704 139.373C194.704 141.576 194.512 143.492 194.129 145.121C194.512 146.654 194.704 148.57 194.704 150.869C194.704 153.072 194.512 154.988 194.129 156.617H189.818C190.201 158.15 190.393 160.066 190.393 162.365C190.393 164.568 190.201 166.484 189.818 168.113H185.507C185.89 169.645 186.082 171.561 186.082 173.86C186.082 176.064 185.89 177.98 185.507 179.608H182.633C183.016 181.141 183.208 183.057 183.208 185.356C183.208 187.56 183.016 189.476 182.633 191.104H176.885C177.268 192.637 177.46 194.553 177.46 196.852C177.46 199.055 177.268 200.971 176.885 202.6H165.389C165.006 200.971 164.815 199.055 164.815 196.852C164.815 194.553 165.006 192.637 165.389 191.104H159.642C159.258 189.476 159.067 187.56 159.067 185.356C159.067 183.057 159.258 181.141 159.642 179.608H156.768C156.384 177.98 156.193 176.064 156.193 173.86C156.193 171.561 156.384 169.645 156.768 168.113H152.457C152.073 166.484 151.882 164.568 151.882 162.365C151.882 160.066 152.073 158.15 152.457 156.617H148.146C147.763 154.988 147.571 153.072 147.571 150.869C147.571 148.57 147.763 146.654 148.146 145.121C147.763 143.492 147.571 141.576 147.571 139.373C147.571 137.074 147.763 135.158 148.146 133.625C147.763 131.997 147.571 130.081 147.571 127.877C147.571 125.578 147.763 123.662 148.146 122.129H159.642C160.025 123.662 160.216 125.578 160.216 127.877C160.216 130.081 160.025 131.997 159.642 133.625C160.025 135.158 160.216 137.074 160.216 139.373C160.216 141.576 160.025 143.492 159.642 145.121C160.025 146.654 160.216 148.57 160.216 150.869C160.216 153.072 160.025 154.988 159.642 156.617H163.952C164.336 158.15 164.527 160.066 164.527 162.365C164.527 164.568 164.336 166.484 163.952 168.113H168.263C168.647 169.645 168.838 171.561 168.838 173.86C168.838 176.064 168.647 177.98 168.263 179.608H174.011C173.628 177.98 173.436 176.064 173.436 173.86C173.436 171.561 173.628 169.645 174.011 168.113H178.322C177.939 166.484 177.747 164.568 177.747 162.365C177.747 160.066 177.939 158.15 178.322 156.617H182.633C182.25 154.988 182.058 153.072 182.058 150.869C182.058 148.57 182.25 146.654 182.633 145.121C182.25 143.492 182.058 141.576 182.058 139.373C182.058 137.074 182.25 135.158 182.633 133.625C182.25 131.997 182.058 130.081 182.058 127.877C182.058 125.578 182.25 123.662 182.633 122.129H194.129C194.512 123.662 194.704 125.578 194.704 127.877C194.704 130.081 194.512 131.997 194.129 133.625Z" fill="black"/>
<path fill-rule="evenodd" clip-rule="evenodd" d="M76.3349 64.8962C76.7181 63.2676 76.9097 61.3516 76.9097 59.1483C76.9097 56.8491 76.7181 54.9332 76.3349 53.4004H61.9652C61.582 54.9332 61.3904 56.8491 61.3904 59.1483C61.3904 61.3516 61.582 63.2676 61.9652 64.8962H76.3349Z" fill="#00CCFF"/>
<path fill-rule="evenodd" clip-rule="evenodd" d="M90.7152 70.6441C91.0984 69.0155 91.29 67.0995 91.29 64.8962C91.29 62.597 91.0984 60.6811 90.7152 59.1483H76.3454C75.9622 60.6811 75.7706 62.597 75.7706 64.8962C75.7706 67.0995 75.9622 69.0155 76.3454 70.6441H90.7152Z" fill="#00CCFF"/>
<path fill-rule="evenodd" clip-rule="evenodd" d="M105.095 76.392C105.479 74.7634 105.67 72.8474 105.67 70.6441C105.67 68.3449 105.479 66.429 105.095 64.8962H90.7257C90.3425 66.429 90.1509 68.3449 90.1509 70.6441C90.1509 72.8474 90.3425 74.7634 90.7257 76.392H105.095Z" fill="#00CCFF"/>
<path fill-rule="evenodd" clip-rule="evenodd" d="M119.476 82.1399C119.859 80.5113 120.05 78.5953 120.05 76.392C120.05 74.0928 119.859 72.1769 119.476 70.6441H105.106C104.723 72.1769 104.531 74.0928 104.531 76.392C104.531 78.5953 104.723 80.5113 105.106 82.1399H119.476Z" fill="#00CCFF"/>
<path fill-rule="evenodd" clip-rule="evenodd" d="M133.856 87.8878C134.239 86.2592 134.431 84.3432 134.431 82.1399C134.431 79.8407 134.239 77.9248 133.856 76.392H119.486C119.103 77.9248 118.911 79.8407 118.911 82.1399C118.911 84.3432 119.103 86.2592 119.486 87.8878H133.856Z" fill="#00CCFF"/>
<path fill-rule="evenodd" clip-rule="evenodd" d="M119.473 93.6376C119.856 92.0091 120.048 90.0931 120.048 87.8897C120.048 85.5906 119.856 83.6746 119.473 82.1418H105.103C104.72 83.6746 104.529 85.5906 104.529 87.8897C104.529 90.0931 104.72 92.0091 105.103 93.6376H119.473Z" fill="#00CCFF"/>
<path fill-rule="evenodd" clip-rule="evenodd" d="M105.09 99.3878C105.474 97.7592 105.665 95.8432 105.665 93.6399C105.665 91.3407 105.474 89.4248 105.09 87.892H90.7207C90.3375 89.4248 90.1459 91.3407 90.1459 93.6399C90.1459 95.8432 90.3375 97.7592 90.7207 99.3878H105.09Z" fill="#00CCFF"/>
<path fill-rule="evenodd" clip-rule="evenodd" d="M90.7077 105.138C91.0909 103.509 91.2825 101.593 91.2825 99.3899C91.2825 97.0907 91.0909 95.1748 90.7077 93.642H76.3379C75.9547 95.1748 75.7631 97.0907 75.7631 99.3899C75.7631 101.593 75.9547 103.509 76.3379 105.138H90.7077Z" fill="#00CCFF"/>
<path fill-rule="evenodd" clip-rule="evenodd" d="M76.3249 110.888C76.7081 109.259 76.8997 107.343 76.8997 105.14C76.8997 102.841 76.7081 100.925 76.3249 99.392H61.9552C61.572 100.925 61.3804 102.841 61.3804 105.14C61.3804 107.343 61.572 109.259 61.9552 110.888H76.3249Z" fill="#00CCFF"/>
<path fill-rule="evenodd" clip-rule="evenodd" d="M194.129 110.888C194.512 109.259 194.704 107.343 194.704 105.14C194.704 102.841 194.512 100.925 194.129 99.3921H179.759C179.376 100.925 179.184 102.841 179.184 105.14C179.184 107.343 179.376 109.259 179.759 110.888H194.129Z" fill="#00CCFF"/>
</svg>
